<svg xmlns="http://www.w3.org/2000/svg" xmlns:xlink="http://www.w3.org/1999/xlink" xmlns:inkscape="http://www.inkscape.org/namespaces/inkscape" version="1.1" width="628" height="628" viewBox="0 0 628 628">
<defs>
<clipPath id="clip_1">
<path transform="matrix(1,0,0,-1,0,628)" d="M0 0H628V628H0Z"/>
</clipPath>
<clipPath id="clip_2">
<path transform="matrix(1,0,0,-1,0,628)" d="M91 238.6137H390.1683V537H91Z"/>
</clipPath>
<clipPath id="clip_3">
<path transform="matrix(1,0,0,-1,0,628)" d="M537 91H237.8317V389.3863H537Z"/>
</clipPath>
<clipPath id="clip_4">
<path transform="matrix(1,0,0,-1,0,628)" d="M0 0H628V628H0Z"/>
</clipPath>
</defs>
<g clip-path="url(#clip_1)">
<path transform="matrix(1,0,0,-1,0,628)" d="M305.5024 628H322.4976C412.1471 628 465.9367 628 501.7965 613.029 553.4915 594.2136 594.2136 553.4915 613.029 501.7965 628 465.9367 628 412.1471 628 322.4976V305.5024C628 215.8529 628 162.0633 613.029 126.2035 594.2136 74.50852 553.4915 33.78641 501.7965 14.97098 465.9367 0 412.1471 0 322.4976 0H305.5024C215.8529 0 162.0633 0 126.2035 14.97098 74.50852 33.78641 33.78641 74.50852 14.97098 126.2035 0 162.0633 0 215.8529 0 305.5024V322.4976C0 412.1471 0 465.9367 14.97098 501.7965 33.78641 553.4915 74.50852 594.2136 126.2035 613.029 162.0633 628 215.8529 628 305.5024 628ZM305.5024 628" fill="#7d5ee0"/>
</g>
<g clip-path="url(#clip_2)">
<path transform="matrix(1,0,0,-1,0,628)" d="M130.1325 536 205.0049 461.8536H156.5268C153.8046 461.8639 151.0693 461.6751 148.3698 461.3226 119.8525 457.5993 97.08818 435.6359 92.66317 407.223 92.2433 404.5269 92.04774 401.8528 92 399.1246V239.6137H218.0031C220.0154 239.665 222.0323 240.004 223.9716 240.543 231.5277 242.643 237.6641 248.0974 240.0868 255.4785 240.6015 257.0476 240.9533 258.6775 241.0815 260.3242V388.3711H365.1614C368.0465 388.4573 370.9029 389.0265 373.5837 390.0969 379.863 392.6044 384.7985 397.4691 387.3777 403.5721 388.2811 405.7098 388.9062 407.9703 389.1683 410.2764V536H130.1325ZM130.1325 536" fill="#f8f6eb"/>
</g>
<g clip-path="url(#clip_3)">
<g clip-path="url(#clip_4)">
<path transform="matrix(1,0,0,-1,0,628)" d="M497.8675 92 422.9951 166.1464H471.4732C474.1954 166.1361 476.9307 166.325 479.6302 166.6774 508.1475 170.4007 530.9118 192.3641 535.3368 220.777 535.7567 223.4731 535.9523 226.1472 536 228.8754V388.3863H409.9969C407.9846 388.335 405.9677 387.996 404.0284 387.457 396.4723 385.357 390.3359 379.9026 387.9132 372.5215 387.3985 370.9524 387.0467 369.3225 386.9185 367.6758V239.6289H262.8386C259.9535 239.5427 257.0971 238.9735 254.4163 237.9031 248.137 235.3956 243.2015 230.5309 240.6223 224.4279 239.7189 222.2902 239.0938 220.0297 238.8317 217.7236V92H497.8675ZM497.8675 92" fill="#f8f6eb"/>
</g>
</g>
</svg>
